<svg xmlns="http://www.w3.org/2000/svg" width="3240" height="4858.75" viewBox="0 0 3240 4858.75">
  <defs>
    <style>
      .cls-1 {
        fill: #0f1630;
        stroke: #000;
        stroke-width: 1px;
        fill-rule: evenodd;
      }
    </style>
  </defs>
  <path class="cls-1" d="M766,2672c24,96,344,240,392,328s-72,144-72,144l176,256s80,16,120,56,32,128,32,128l-32,216,40,112s64,32,104,224,232,528,232,528l80-272c2.44-151.02-104-248-104-352s-48-224,32-376,520-56,520-56,144-360,216-352,88,72,88,72l96-184-216-464c10.67-77.33,24-128,80-344s216-66.67,280-40c0,0,208-32,248-72s-24-480-24-480l248-328,371,4387-4275-43,32-4240S-153.87,910.108-10,904c424-18,328,72,384,264s128,560,128,560,208,0,288,88,120,192,120,192l16,184s56,192-16,280" transform="translate(0 -901.25)"/>
</svg>
