<svg id="vector" xmlns="http://www.w3.org/2000/svg" viewBox="0 0 554.83 201.74"><defs><style>.cls-1{fill:#16365d;}</style></defs><path class="cls-1" d="M161.23,542.51a202,202,0,0,0,55.39-4.77l23.78-5.24s-1,.21,5.11,8,18.38,15.47,27.57,19.55,54.64,12.77,59.75,15.83,18.06,3.62,16.21,15.63c-.55,3.62-3.37,10.2-2.49,10.64,1.83.92,16.47-6.23,17.47-17.79.66-7.63-5.06-20.73-13-28.93-3.8-3.92-9.17-6.14-17-8.51a80,80,0,0,1-9.44-2.75,56.77,56.77,0,0,1-7.72-3.68c-11.5-10.63-12.34-15.53-11.24-18,2.5-5.72,16.47-2.17,45.61-6a214.73,214.73,0,0,0,23.09-4.18c23.33-6.16,35.85-16.22,84.83-26.8,38.34-8.29,46.71-5.52,51.74-3.06,18.5,9,22.32,28.77,42.89,31.66,10.58,1.48,26.56-3.41,21.79-3.07-.6.05-2.44-2.71-6.81-4.76-5.1-2.4-8.24-4-12.38-7.82-6-5.57-12.91-6.32-12.9-7,0-.06,0-.09.09-.13s2.71-2.77,4.21-3.36c3.17-1.26,6.2,4.65,13,6.22,4.18,1,7.91-.14,10.89-1a28.78,28.78,0,0,0,8.64-4.23,77.25,77.25,0,0,0-9.19-6.46,70,70,0,0,0-12.39-6c-8.18-3-15.33-7.91-15.31-8.85,0-.59,11,3.61,21.1,2.72a89.35,89.35,0,0,1,8.5-3.22c1.4-.45,2.77-.85,4.1-1.21a71.53,71.53,0,0,0-33.36-15.65l9.93-2.3A43.8,43.8,0,0,1,568,441.5c6.53-1.6,10.55-1.16,10.81-2.48.4-2-8.36-6.92-18.38-8.17-12.74-1.58-22.9,3.29-23.49,1.7-.3-.79,2-2.6,4.42-3.74,7.18-3.43,10.4,1.33,19.41-.34,7.77-1.44,9.81-5.79,18-9.19.22-.09.71-.29.71-.57,0-1.41-12.45-2.64-24.2-3.52a23.79,23.79,0,0,0-9.87-3.06,25.62,25.62,0,0,0-13.62,3.06c-13.55,6.88-12.54,18.12-25.06,27.28-5.93,4.34-12,6.07-24.32,8.36a175.72,175.72,0,0,1-34.24,3c-35.3-.64-60.58-5.65-93.56-9.56-6.4-.76-12.74-2.15-19.18-2.35-9-.29-14.11.69-15.6-2.05s1.55-7.37,3.72-9.7,3.17-3.55,7.18-4.59c7.82-2.05,16.14-15.15,10.42-13.11s-65.14,11.25-72.72,12.35c-4.32.64-11.24,0-7.66-4.39s15.83-5.41,17.36-19.94c0-.26-44.83,19.94-62.7,34.29-12.19,9.78-49.57,3.94-104.68,10.71-8.64,1.06-85.32,33-85.32,33a196.27,196.27,0,0,0,63.12,46.32A199.75,199.75,0,0,0,161.23,542.51Z" transform="translate(-25.49 -400.52)"/></svg>