<svg id="img" xmlns="http://www.w3.org/2000/svg" viewBox="0 0 506.41 522.37"><defs><style>.cls-1{fill:#16365d;}.cls-2{fill:none;stroke:#231f20;stroke-miterlimit:10;stroke-width:0.75px;}</style></defs><path class="cls-1" d="M472.19,226.65c-5.26-37.11-91.93-51.63-102.55-53.3a213.37,213.37,0,0,0-112.49,13c-28.85,11.71-47.68,26.84-60.65,37.53-17.31,14.25-54.33,44.75-75.7,94.57C93.42,382.32,112.45,429.67,73,460.59a79.11,79.11,0,0,1-16.5,9.93c-13.39,5.77-16.63,10.72-17.61,13l-.18.43c0,.14-2.31,8.83.18,13.36,2.77,5,12.94,7.68,23.1,2.66a50.07,50.07,0,0,1,4.95-2.14h0s7-2.46,8.71-2.66c17.75-2.08,39.06,15.16,39.06,15.16,27.63,22.34,23.24,31.49,51.32,56.48,0,0,19.58,17.42,41.95,29.14,4.64,2.43,9.37,4.6,9.37,4.6a180.29,180.29,0,0,0,24.51,9.35c-8.87,23.08-6.26,47.77,7.66,63.57C258.75,684,271,688.3,274.76,689.58c13.31,4.53,29.16,4.77,30.54.76.73-2.12-3.29-4.4-14.81-16.08-5.56-5.64-11.26-11.42-10.63-12.23,1.71-2.18,45.93,35.85,54.64,28.31,3.74-3.23-.39-13.67-2.29-18.38-16.92-41.8-58.79-56.72-55.92-64.34,2.67-7.08,39.28,4.82,94.88.77,22.79-1.66,34.28-2.68,41.08-10.1,12.47-13.6,4-34.18-.23-96.46-2.89-42.26,0-48,2.91-48.92,7.4-2.36,18.19,24.28,54.38,58.11,12.53,11.72,20.76,17.43,31.84,19.2,16.64,2.66,37.8-3.87,40.31-14.67,3.36-14.47-30.34-20.9-37-50.49-4.05-17.93,2.41-41.73,16.94-55,10.69-9.8,22.69-11,22.71-17.56,0-6.83-13-13.16-23.31-15.38-13.36-2.86-25.8,1.06-50.14,9-11.28,3.69-17.74,6.42-30.76,9.36-20.24,4.58-25.8,2.79-28.89,0-5.08-4.58-4.56-12.86-4.09-18.38,3.88-45,12.61-63.68,12.61-63.68C447.32,254.05,475.26,248.29,472.19,226.65Z" transform="translate(-37.69 -170.8)"/><path class="cls-2" d="M107,537.16" transform="translate(-37.69 -170.8)"/><path class="cls-2" d="M-85.34,464.55" transform="translate(-37.69 -170.8)"/><path class="cls-2" d="M-53.68,432.38" transform="translate(-37.69 -170.8)"/></svg>